<svg width="7" height="13" viewBox="0 0 7 13" fill="none" xmlns="http://www.w3.org/2000/svg">
<path d="M0.190765 6.52981L5.49077 1.18981C5.55118 1.12904 5.623 1.08081 5.70212 1.0479C5.78123 1.01499 5.86608 0.998047 5.95177 0.998047C6.03746 0.998047 6.1223 1.01499 6.20142 1.0479C6.28053 1.08081 6.35236 1.12904 6.41277 1.18981L6.80276 1.58281C6.92466 1.70649 6.993 1.87316 6.993 2.04681C6.993 2.22046 6.92466 2.38714 6.80276 2.51081L2.35277 6.99781L6.80977 11.4868C6.93166 11.6105 7 11.7772 7 11.9508C7 12.1245 6.93166 12.2911 6.80977 12.4148L6.41977 12.8078C6.35936 12.8686 6.28753 12.9168 6.20841 12.9497C6.1293 12.9826 6.04446 12.9996 5.95877 12.9996C5.87308 12.9996 5.78824 12.9826 5.70912 12.9497C5.63 12.9168 5.55817 12.8686 5.49776 12.8078L0.190765 7.46281C0.068856 7.33834 0.000579564 7.17104 0.000579572 6.99681C0.000579579 6.82258 0.068856 6.65529 0.190765 6.53081L0.190765 6.52981Z" fill="white"/>
</svg>
