<svg width="13" height="7" viewBox="0 0 13 7" fill="none" xmlns="http://www.w3.org/2000/svg">
<path d="M6.47019 0.190765L11.8102 5.49077C11.871 5.55118 11.9192 5.623 11.9521 5.70212C11.985 5.78123 12.002 5.86608 12.002 5.95177C12.002 6.03746 11.985 6.1223 11.9521 6.20142C11.9192 6.28053 11.871 6.35236 11.8102 6.41277L11.4172 6.80276C11.2935 6.92466 11.1268 6.993 10.9532 6.993C10.7795 6.993 10.6129 6.92466 10.4892 6.80276L6.00219 2.35277L1.51319 6.80977C1.38951 6.93166 1.22284 7 1.04919 7C0.875538 7 0.708863 6.93166 0.585188 6.80977L0.192187 6.41977C0.131414 6.35936 0.0831861 6.28753 0.0502758 6.20841C0.0173655 6.1293 0.000422478 6.04446 0.000422478 5.95877C0.000422478 5.87308 0.0173655 5.78824 0.0502758 5.70912C0.0831861 5.63001 0.131414 5.55817 0.192187 5.49776L5.53719 0.190765C5.66166 0.0688562 5.82896 0.000579834 6.00319 0.000579834C6.17742 0.000579834 6.34471 0.0688562 6.46919 0.190765H6.47019Z" fill="#4980FF"/>
</svg>
