<svg width="7" height="13" viewBox="0 0 7 13" fill="none" xmlns="http://www.w3.org/2000/svg">
<path d="M6.80923 6.52981L1.50923 1.18981C1.44882 1.12904 1.377 1.08081 1.29788 1.0479C1.21877 1.01499 1.13392 0.998047 1.04823 0.998047C0.962545 0.998047 0.8777 1.01499 0.798584 1.0479C0.719468 1.08081 0.647643 1.12904 0.587235 1.18981L0.197235 1.58281C0.0753388 1.70649 0.00700382 1.87316 0.00700383 2.04681C0.00700384 2.22046 0.0753389 2.38714 0.197235 2.51081L4.64723 6.99781L0.190232 11.4868C0.0683355 11.6105 4.7117e-07 11.7772 4.78761e-07 11.9508C4.86351e-07 12.1245 0.0683355 12.2911 0.190232 12.4148L0.580231 12.8078C0.640639 12.8686 0.712472 12.9168 0.791588 12.9497C0.870705 12.9826 0.955541 12.9996 1.04123 12.9996C1.12692 12.9996 1.21176 12.9826 1.29088 12.9497C1.37 12.9168 1.44183 12.8686 1.50224 12.8078L6.80923 7.46281C6.93114 7.33834 6.99942 7.17104 6.99942 6.99681C6.99942 6.82258 6.93114 6.65529 6.80923 6.53081L6.80923 6.52981Z" fill="white"/>
</svg>
