<svg width="12" height="15" viewBox="0 0 12 15" fill="none" xmlns="http://www.w3.org/2000/svg">
<path d="M5.99973 11.1046C6.41919 11.1046 6.75922 10.7557 6.75922 10.3253V0.779271C6.75922 0.34888 6.41919 0 5.99973 0C5.58026 0 5.24023 0.34888 5.24023 0.779271V10.3253C5.24023 10.7557 5.58026 11.1046 5.99973 11.1046Z" fill="#4980FF"/>
<path d="M4.34705 14.3123C4.34834 14.3136 4.3496 14.3149 4.35089 14.3162C4.79523 14.7721 5.37882 15 5.96242 15C6.54555 15 7.12862 14.7724 7.57209 14.3173L11.7765 10.0203C12.0737 9.71654 12.0746 9.22315 11.7786 8.91822C11.4826 8.61333 11.0017 8.61231 10.7045 8.91604L6.49907 13.2142C6.35561 13.3613 6.1649 13.4424 5.96204 13.4424C5.7599 13.4424 5.5698 13.362 5.42652 13.2158L1.30038 8.92106C1.00593 8.61454 0.525019 8.61103 0.226311 8.91315C-0.0723979 9.21528 -0.0758537 9.70867 0.218602 10.0152L4.34705 14.3123Z" fill="#4980FF"/>
</svg>
