<svg width="13" height="7" viewBox="0 0 13 7" fill="none" xmlns="http://www.w3.org/2000/svg">
<path d="M6.47019 6.80923L11.8102 1.50923C11.871 1.44882 11.9192 1.377 11.9521 1.29788C11.985 1.21877 12.002 1.13392 12.002 1.04823C12.002 0.962545 11.985 0.8777 11.9521 0.798584C11.9192 0.719468 11.871 0.647643 11.8102 0.587234L11.4172 0.197235C11.2935 0.0753388 11.1268 0.00700378 10.9532 0.00700378C10.7795 0.00700378 10.6129 0.0753388 10.4892 0.197235L6.00219 4.64723L1.51319 0.190231C1.38951 0.068335 1.22284 0 1.04919 0C0.875538 0 0.708863 0.068335 0.585188 0.190231L0.192187 0.580231C0.131414 0.640639 0.0831861 0.712472 0.0502758 0.791588C0.0173655 0.870704 0.000422478 0.955541 0.000422478 1.04123C0.000422478 1.12692 0.0173655 1.21176 0.0502758 1.29088C0.0831861 1.36999 0.131414 1.44183 0.192187 1.50224L5.53719 6.80923C5.66166 6.93114 5.82896 6.99942 6.00319 6.99942C6.17742 6.99942 6.34471 6.93114 6.46919 6.80923H6.47019Z" fill="white"/>
</svg>
