<svg width="45" height="45" viewBox="0 0 45 45" fill="none" xmlns="http://www.w3.org/2000/svg">
<path d="M37.9688 21.0937H9.91477L20.6571 10.8619C21.2196 10.3261 21.2414 9.43591 20.7056 8.87341C20.1705 8.31162 19.2804 8.28912 18.7172 8.8249L6.44906 20.5108C5.9182 21.0424 5.625 21.7483 5.625 22.5C5.625 23.2509 5.9182 23.9576 6.47367 24.5123L18.7179 36.1743C18.99 36.4338 19.3387 36.5625 19.6875 36.5625C20.0588 36.5625 20.43 36.4162 20.7063 36.1258C21.2421 35.5633 21.2203 34.6739 20.6578 34.1381L9.87047 23.9062H37.9688C38.745 23.9062 39.375 23.2762 39.375 22.5C39.375 21.7237 38.745 21.0937 37.9688 21.0937Z" fill="#303030"/>
</svg>
