<svg width="30" height="30" viewBox="0 0 30 30" fill="none" xmlns="http://www.w3.org/2000/svg">
<path d="M25.2795 2.11506H23.3441C23.1351 0.915293 22.0869 0 20.8281 0H20.4785C19.2198 0 18.1716 0.915293 17.9626 2.11506H10.3546C10.1119 2.11506 9.91512 2.31182 9.91512 2.55451C9.91512 2.79721 10.1119 2.99396 10.3546 2.99396H18.317C18.3248 2.99396 18.3325 2.9932 18.3402 2.99279C18.3479 2.9932 18.3556 2.99396 18.3634 2.99396H19.4824C19.5149 2.99396 19.5413 3.02039 19.5413 3.05285V5.82246C19.5413 6.05297 19.6584 6.26291 19.8545 6.38408C20.0506 6.50525 20.2906 6.51609 20.4969 6.41297L21.462 5.93045L22.4272 6.41297C22.6332 6.51598 22.8734 6.50537 23.0696 6.38408C23.2657 6.26291 23.3828 6.05297 23.3828 5.82246V2.99396H25.1145V26.8492H7.85924V20.054C7.85924 19.8113 7.66248 19.6146 7.41979 19.6146C7.17709 19.6146 6.98033 19.8113 6.98033 20.054V26.8492H4.86328V4.38486C4.86328 3.61793 5.48725 2.99396 6.25424 2.99396H6.98033V18.297C6.98033 18.5398 7.17709 18.7365 7.41979 18.7365C7.66248 18.7365 7.85924 18.5398 7.85924 18.297V2.99396H8.59752C8.84021 2.99396 9.03697 2.79721 9.03697 2.55451C9.03697 2.31182 8.84021 2.11506 8.59752 2.11506H6.25424C5.00262 2.11506 3.98438 3.1333 3.98438 4.38486V27.7301C3.98438 28.9818 5.00262 30 6.25424 30H19.4963C19.7391 30 19.9358 29.8033 19.9358 29.5605C19.9358 29.3178 19.7391 29.1211 19.4963 29.1211H6.25424C5.48725 29.1211 4.86328 28.4971 4.86328 27.7301V27.7281H23.9091V29.1211H21.2534C21.0106 29.1211 20.8139 29.3178 20.8139 29.5605C20.8139 29.8033 21.0106 30 21.2534 30H23.9837C24.4272 30 24.788 29.6392 24.788 29.1957V27.728H25.2796C25.6731 27.728 25.9934 27.4078 25.9934 27.0142V2.82879C25.9933 2.43527 25.6731 2.11506 25.2795 2.11506ZM22.5038 5.46873L21.7573 5.09549C21.6649 5.04926 21.5634 5.02611 21.462 5.02611C21.3606 5.02611 21.2592 5.04926 21.1668 5.09549L20.4203 5.46873V3.05291C20.4203 2.53582 19.9995 2.11512 19.4824 2.11512H18.8614C19.0549 1.40367 19.7066 0.878906 20.4785 0.878906H20.8281C21.7521 0.878906 22.5038 1.63061 22.5038 2.55451V5.46873Z" fill="#4980FF"/>
<path d="M18.5473 21.3779C18.79 21.3779 18.9867 21.1812 18.9867 20.9385C18.9867 20.6957 18.79 20.499 18.5473 20.499H14.3608C14.1181 20.499 13.9214 20.6957 13.9214 20.9385C13.9214 21.1812 14.1181 21.3779 14.3608 21.3779H18.5473Z" fill="#4980FF"/>
<path d="M18.5473 14.9414C18.79 14.9414 18.9867 14.7447 18.9867 14.502C18.9867 14.2592 18.79 14.0625 18.5473 14.0625H14.3608C14.1181 14.0625 13.9214 14.2592 13.9214 14.502C13.9214 14.7447 14.1181 14.9414 14.3608 14.9414H18.5473Z" fill="#4980FF"/>
<path d="M18.5473 8.50488C18.79 8.50488 18.9867 8.30818 18.9867 8.06543C18.9867 7.82268 18.79 7.62598 18.5473 7.62598H14.3608C14.1181 7.62598 13.9214 7.82268 13.9214 8.06543C13.9214 8.30818 14.1181 8.50488 14.3608 8.50488H18.5473Z" fill="#4980FF"/>
<path d="M13.042 22.9297C13.042 23.1724 13.2388 23.3691 13.4814 23.3691H19.4257C19.6684 23.3691 19.8651 23.1724 19.8651 22.9297C19.8651 22.6869 19.6684 22.4902 19.4257 22.4902H13.4814C13.2388 22.4902 13.042 22.6869 13.042 22.9297Z" fill="#4980FF"/>
<path d="M13.042 16.493C13.042 16.7358 13.2388 16.9325 13.4814 16.9325H19.4257C19.6684 16.9325 19.8651 16.7358 19.8651 16.493C19.8651 16.2503 19.6684 16.0536 19.4257 16.0536H13.4814C13.2388 16.0536 13.042 16.2503 13.042 16.493Z" fill="#4980FF"/>
<path d="M13.042 10.0566C13.042 10.2994 13.2388 10.4961 13.4814 10.4961H19.4257C19.6684 10.4961 19.8651 10.2994 19.8651 10.0566C19.8651 9.81389 19.6684 9.61719 19.4257 9.61719H13.4814C13.2388 9.61719 13.042 9.81389 13.042 10.0566Z" fill="#4980FF"/>
</svg>
