<svg width="170" height="170" viewBox="0 0 170 170" fill="none" xmlns="http://www.w3.org/2000/svg">
<path d="M151.099 61.2974L169.027 43.369C169.766 42.631 170.114 41.5869 169.966 40.5532C169.819 39.5195 169.193 38.6142 168.277 38.111L146.724 26.2759C145.117 25.3939 143.099 25.9815 142.215 27.5884C141.333 29.1967 141.92 31.2148 143.528 32.0968L161.203 41.8022L145.817 57.1872L90.4782 26.7999L105.863 11.4149L121.416 19.9556C123.022 20.8376 125.042 20.2513 125.924 18.643C126.807 17.0361 126.22 15.0166 124.611 14.1347L106.875 4.39424C105.58 3.68349 103.972 3.91305 102.929 4.95714L84.9997 22.8868L67.07 4.95714C66.026 3.91305 64.4177 3.68478 63.1246 4.39424L1.72214 38.111C0.806457 38.6142 0.180008 39.5182 0.0334468 40.5532C-0.114411 41.5869 0.233185 42.631 0.972473 43.369L18.9009 61.2974L0.972473 79.2245C0.233185 79.9638 -0.114411 81.0066 0.0334468 82.0416C0.180008 83.0753 0.806457 83.9806 1.72214 84.4825L20.277 94.6717V128.728C20.277 129.941 20.9371 131.056 21.9994 131.64L83.4018 165.355C83.8999 165.629 84.4498 165.765 84.9997 165.765C85.5497 165.765 86.0996 165.629 86.5976 165.355L148 131.64C149.062 131.056 149.722 129.941 149.722 128.728V94.6717L168.277 84.4838C169.193 83.9806 169.819 83.0753 169.966 82.0416C170.114 81.0079 169.766 79.9638 169.027 79.2258L151.099 61.2974ZM84.9997 91.2243L30.496 61.2961L84.9997 31.3666L139.503 61.2961L84.9997 91.2243ZM64.1375 11.4149L79.5212 26.7999L24.1822 57.1872L8.79726 41.8022L64.1375 11.4149ZM24.1848 65.4063L79.5238 95.7936L64.1375 111.18L8.79726 80.7925L24.1848 65.4063ZM143.082 126.765L88.32 156.834V122.893C88.32 121.059 86.8337 119.573 84.9997 119.573C83.1658 119.573 81.6794 121.059 81.6794 122.893V156.834L26.9176 126.765V98.3189L63.1246 118.201C63.6265 118.475 64.1764 118.61 64.7212 118.61C65.5811 118.61 66.4319 118.276 67.07 117.638L84.9997 99.7079L102.929 117.638C103.568 118.277 104.418 118.61 105.278 118.61C105.823 118.61 106.373 118.475 106.875 118.201L143.082 98.3189V126.765ZM105.863 111.18L90.4769 95.7923L145.816 65.4063L161.203 80.7913L105.863 111.18Z" fill="#203366"/>
<path d="M134.406 26.6209C135.279 26.6209 136.133 26.2655 136.754 25.6469C137.371 25.0295 137.727 24.1735 137.727 23.3006C137.727 22.4264 137.371 21.5704 136.754 20.953C136.136 20.3344 135.279 19.9803 134.406 19.9803C133.529 19.9803 132.676 20.3344 132.059 20.953C131.437 21.5704 131.086 22.4264 131.086 23.3006C131.086 24.1735 131.437 25.0295 132.059 25.6469C132.676 26.2655 133.533 26.6209 134.406 26.6209Z" fill="#203366"/>
<path d="M85 108.55C84.1271 108.55 83.2698 108.904 82.6524 109.522C82.0351 110.142 81.6797 110.996 81.6797 111.87C81.6797 112.745 82.0351 113.599 82.6524 114.22C83.2698 114.837 84.1271 115.19 85 115.19C85.8729 115.19 86.7302 114.837 87.3476 114.22C87.9649 113.599 88.3203 112.745 88.3203 111.87C88.3203 110.996 87.9649 110.142 87.3476 109.522C86.7302 108.904 85.8729 108.55 85 108.55Z" fill="#203366"/>
</svg>
