<svg width="32" height="32" viewBox="0 0 32 32" fill="none" xmlns="http://www.w3.org/2000/svg">
<g clip-path="url(#clip0)">
<path d="M22.7083 0H11.4561C11.1972 0 10.9874 0.209875 10.9874 0.46875C10.9874 0.727625 11.1972 0.9375 11.4561 0.9375H21.4667L8.96391 4.93744C8.32879 5.09 7.88629 5.65419 7.88629 6.30431V26.1642H6.55554C6.29716 26.1642 6.08698 25.954 6.08698 25.6956V1.40606C6.08698 1.14769 6.29716 0.9375 6.55554 0.9375H9.26866C9.52754 0.9375 9.73741 0.727625 9.73741 0.46875C9.73741 0.209875 9.52754 0 9.26866 0H6.55554C5.78023 0 5.14941 0.63075 5.14941 1.40606V25.6957C5.14941 26.471 5.78016 27.1017 6.55548 27.1017H7.88623V30.5939C7.88623 31.3692 8.51698 32 9.29229 32H25.4452C26.2205 32 26.8512 31.3692 26.8512 30.5939V28.9153C26.8512 28.6564 26.6413 28.4465 26.3825 28.4465C26.1236 28.4465 25.9137 28.6564 25.9137 28.9153V30.5939C25.9137 30.8523 25.7035 31.0625 25.4452 31.0625H9.29235C9.03398 31.0625 8.82379 30.8523 8.82379 30.5939V26.633C8.82379 25.9552 8.82379 7.161 8.82379 6.30438C8.82379 6.04806 9.03535 5.83581 9.29235 5.83581H25.4452C25.7036 5.83581 25.9138 6.046 25.9138 6.30438V26.7278C25.9138 26.9867 26.1237 27.1966 26.3825 27.1966C26.6414 27.1966 26.8513 26.9867 26.8513 26.7278V6.30431C26.8513 5.529 26.2205 4.89825 25.4452 4.89825H24.1145V1.40606C24.1144 0.635625 23.4896 0 22.7083 0V0ZM12.163 4.89831L23.176 1.375C23.1766 1.38513 23.177 1.39544 23.177 1.40606V4.89825H12.163V4.89831Z" fill="#4980FF"/>
<path d="M16.8343 8.05457C16.8343 7.55488 16.4277 7.14832 15.928 7.14832H11.0425C10.5428 7.14832 10.1362 7.55488 10.1362 8.05457V12.5834C10.1362 13.0831 10.5428 13.4896 11.0425 13.4896H15.928C16.4277 13.4896 16.8343 13.0831 16.8343 12.5834V8.05457ZM15.8968 12.5521H11.0737V8.08575H15.8968V12.5521Z" fill="#4980FF"/>
<path d="M24.6981 8.05457C24.6981 7.55488 24.2915 7.14832 23.7918 7.14832H18.9062C18.4066 7.14832 18 7.55488 18 8.05457V12.5834C18 13.0831 18.4066 13.4896 18.9062 13.4896H23.7918C24.2915 13.4896 24.6981 13.0831 24.6981 12.5834V8.05457ZM23.7606 12.5521H18.9375V8.08575H23.7606V12.5521Z" fill="#4980FF"/>
<path d="M24.6981 16.4062C24.6981 15.9066 24.2915 15.5 23.7918 15.5H18.9062C18.4066 15.5 18 15.9066 18 16.4062V20.9351C18 21.4348 18.4066 21.8413 18.9062 21.8413H23.7918C24.2915 21.8413 24.6981 21.4348 24.6981 20.9351V16.4062ZM23.7606 20.9037H18.9375V16.4374H23.7606V20.9037Z" fill="#4980FF"/>
<path d="M24.6981 24.3063C24.6981 23.8066 24.2915 23.4 23.7918 23.4H18.9062C18.4066 23.4 18 23.8066 18 24.3063V28.8351C18 29.3348 18.4066 29.7413 18.9062 29.7413H23.7918C24.2915 29.7413 24.6981 29.3348 24.6981 28.8351V24.3063ZM23.7606 28.8038H18.9375V24.3375H23.7606V28.8038Z" fill="#4980FF"/>
<path d="M15.928 23.4087H11.0425C10.5428 23.4087 10.1362 23.8153 10.1362 24.3149V28.8438C10.1362 29.3434 10.5428 29.75 11.0425 29.75H15.928C16.4277 29.75 16.8343 29.3434 16.8343 28.8438V24.3149C16.8343 23.8153 16.4277 23.4087 15.928 23.4087ZM15.8968 28.8125H11.0737V24.3462H15.8968V28.8125Z" fill="#4980FF"/>
<path d="M16.8343 16.4375C16.8343 15.9378 16.4277 15.5312 15.928 15.5312H11.0425C10.5428 15.5312 10.1362 15.9378 10.1362 16.4375V20.9663C10.1362 21.466 10.5428 21.8726 11.0425 21.8726H15.928C16.4277 21.8726 16.8343 21.466 16.8343 20.9663V16.4375ZM15.8968 20.9351H11.0737V16.4687H15.8968V20.9351Z" fill="#4980FF"/>
</g>
<defs>
<clipPath id="clip0">
<rect width="32" height="32" fill="white"/>
</clipPath>
</defs>
</svg>
