<svg width="36" height="38" viewBox="0 0 36 38" fill="none" xmlns="http://www.w3.org/2000/svg">
<circle cx="18" cy="16" r="16" fill="#E10B0B"/>
<g filter="url(#filter0_d)">
<circle cx="17.9994" cy="16" r="13.4194" fill="#FF0000"/>
</g>
<path d="M30.5303 16.5303C30.8232 16.2374 30.8232 15.7626 30.5303 15.4697L25.7574 10.6967C25.4645 10.4038 24.9896 10.4038 24.6967 10.6967C24.4038 10.9896 24.4038 11.4645 24.6967 11.7574L28.9393 16L24.6967 20.2426C24.4038 20.5355 24.4038 21.0104 24.6967 21.3033C24.9896 21.5962 25.4645 21.5962 25.7574 21.3033L30.5303 16.5303ZM14 16.75H30V15.25H14V16.75Z" fill="white"/>
<path d="M5.46967 16.5303C5.17678 16.2374 5.17678 15.7626 5.46967 15.4697L10.2426 10.6967C10.5355 10.4038 11.0104 10.4038 11.3033 10.6967C11.5962 10.9896 11.5962 11.4645 11.3033 11.7574L7.06066 16L11.3033 20.2426C11.5962 20.5355 11.5962 21.0104 11.3033 21.3033C11.0104 21.5962 10.5355 21.5962 10.2426 21.3033L5.46967 16.5303ZM22 16.75H6V15.25H22V16.75Z" fill="white"/>
<g style="mix-blend-mode:lighten" opacity="0.4" filter="url(#filter1_d)">
<path d="M31.4188 15.9593C31.4188 23.3706 27.5 13.9593 20 13.4593C12.5887 13.4593 4.58008 23.3706 4.58008 15.9593C4.58008 8.54803 10.5881 2.53998 17.9994 2.53998C25.4107 2.53998 31.4188 8.54803 31.4188 15.9593Z" fill="#FFA6A6"/>
</g>
<defs>
<filter id="filter0_d" x="0.580078" y="2.58063" width="34.8387" height="34.8387" filterUnits="userSpaceOnUse" color-interpolation-filters="sRGB">
<feFlood flood-opacity="0" result="BackgroundImageFix"/>
<feColorMatrix in="SourceAlpha" type="matrix" values="0 0 0 0 0 0 0 0 0 0 0 0 0 0 0 0 0 0 127 0"/>
<feOffset dy="4"/>
<feGaussianBlur stdDeviation="2"/>
<feColorMatrix type="matrix" values="0 0 0 0 0 0 0 0 0 0 0 0 0 0 0 0 0 0 0.25 0"/>
<feBlend mode="normal" in2="BackgroundImageFix" result="effect1_dropShadow"/>
<feBlend mode="normal" in="SourceGraphic" in2="effect1_dropShadow" result="shape"/>
</filter>
<filter id="filter1_d" x="0.580078" y="2.53998" width="34.8387" height="24.2531" filterUnits="userSpaceOnUse" color-interpolation-filters="sRGB">
<feFlood flood-opacity="0" result="BackgroundImageFix"/>
<feColorMatrix in="SourceAlpha" type="matrix" values="0 0 0 0 0 0 0 0 0 0 0 0 0 0 0 0 0 0 127 0"/>
<feOffset dy="4"/>
<feGaussianBlur stdDeviation="2"/>
<feColorMatrix type="matrix" values="0 0 0 0 0 0 0 0 0 0 0 0 0 0 0 0 0 0 0.25 0"/>
<feBlend mode="normal" in2="BackgroundImageFix" result="effect1_dropShadow"/>
<feBlend mode="normal" in="SourceGraphic" in2="effect1_dropShadow" result="shape"/>
</filter>
</defs>
</svg>
