<svg width="36" height="39" viewBox="0 0 36 39" fill="none" xmlns="http://www.w3.org/2000/svg">
<circle cx="18" cy="17" r="16" fill="#E10B0B"/>
<g filter="url(#filter0_dd)">
<circle cx="17.9994" cy="17" r="13.4194" fill="#FF0000"/>
</g>
<path d="M13.3555 22.1613H12.6055V22.9113H13.3555V22.1613ZM13.8858 7.6955C13.5929 7.40261 13.118 7.40261 12.8251 7.6955L8.05217 12.4685C7.75927 12.7614 7.75927 13.2362 8.05217 13.5291C8.34506 13.822 8.81993 13.822 9.11283 13.5291L13.3555 9.28649L17.5981 13.5291C17.891 13.822 18.3659 13.822 18.6588 13.5291C18.9517 13.2362 18.9517 12.7614 18.6588 12.4685L13.8858 7.6955ZM27.8213 22.6916C28.1142 22.3988 28.1142 21.9239 27.8213 21.631L23.0483 16.858C22.7554 16.5651 22.2805 16.5651 21.9877 16.858C21.6948 17.1509 21.6948 17.6258 21.9877 17.9187L26.2303 22.1613L21.9877 26.404C21.6948 26.6968 21.6948 27.1717 21.9877 27.4646C22.2805 27.7575 22.7554 27.7575 23.0483 27.4646L27.8213 22.6916ZM14.1055 22.1613V8.22583H12.6055V22.1613H14.1055ZM13.3555 22.9113H27.291V21.4113H13.3555V22.9113Z" fill="white"/>
<g style="mix-blend-mode:lighten" opacity="0.4" filter="url(#filter1_d)">
<path d="M31.4188 17C31.4188 24.4113 27.5 15 20 14.5C12.5887 14.5 4.58008 24.4113 4.58008 17C4.58008 9.58874 10.5881 3.58069 17.9994 3.58069C25.4107 3.58069 31.4188 9.58874 31.4188 17Z" fill="#FFA6A6"/>
</g>
<defs>
<filter id="filter0_dd" x="0.580078" y="0.580688" width="34.8387" height="37.8387" filterUnits="userSpaceOnUse" color-interpolation-filters="sRGB">
<feFlood flood-opacity="0" result="BackgroundImageFix"/>
<feColorMatrix in="SourceAlpha" type="matrix" values="0 0 0 0 0 0 0 0 0 0 0 0 0 0 0 0 0 0 127 0"/>
<feOffset dy="4"/>
<feGaussianBlur stdDeviation="2"/>
<feColorMatrix type="matrix" values="0 0 0 0 0 0 0 0 0 0 0 0 0 0 0 0 0 0 0.25 0"/>
<feBlend mode="normal" in2="BackgroundImageFix" result="effect1_dropShadow"/>
<feColorMatrix in="SourceAlpha" type="matrix" values="0 0 0 0 0 0 0 0 0 0 0 0 0 0 0 0 0 0 127 0"/>
<feOffset dy="-1"/>
<feGaussianBlur stdDeviation="1"/>
<feColorMatrix type="matrix" values="0 0 0 0 0 0 0 0 0 0 0 0 0 0 0 0 0 0 0.25 0"/>
<feBlend mode="normal" in2="effect1_dropShadow" result="effect2_dropShadow"/>
<feBlend mode="normal" in="SourceGraphic" in2="effect2_dropShadow" result="shape"/>
</filter>
<filter id="filter1_d" x="0.580078" y="3.58069" width="34.8387" height="24.2531" filterUnits="userSpaceOnUse" color-interpolation-filters="sRGB">
<feFlood flood-opacity="0" result="BackgroundImageFix"/>
<feColorMatrix in="SourceAlpha" type="matrix" values="0 0 0 0 0 0 0 0 0 0 0 0 0 0 0 0 0 0 127 0"/>
<feOffset dy="4"/>
<feGaussianBlur stdDeviation="2"/>
<feColorMatrix type="matrix" values="0 0 0 0 0 0 0 0 0 0 0 0 0 0 0 0 0 0 0.25 0"/>
<feBlend mode="normal" in2="BackgroundImageFix" result="effect1_dropShadow"/>
<feBlend mode="normal" in="SourceGraphic" in2="effect1_dropShadow" result="shape"/>
</filter>
</defs>
</svg>
