<svg width="24" height="24" viewBox="0 0 24 24" fill="none" xmlns="http://www.w3.org/2000/svg">
<g clip-path="url(#clip0)">
<path d="M14.7501 8.00006H22.2501C23.215 8.00006 24 7.21509 24 6.24994V1.74994C24 0.784973 23.215 0 22.2501 0H14.7501C13.7849 0 12.9999 0.784973 12.9999 1.74994V6.24994C12.9999 7.21509 13.7849 8.00006 14.7501 8.00006ZM22.2501 1.5C22.3879 1.5 22.5 1.61206 22.5 1.74994V6.24994C22.5 6.388 22.3879 6.50006 22.2501 6.50006H14.7501C14.612 6.50006 14.4999 6.388 14.4999 6.24994V1.74994C14.4999 1.61206 14.612 1.5 14.7501 1.5H22.2501Z" fill="#4980FF"/>
<path d="M14.7501 24.0001H22.2501C23.215 24.0001 24 23.2151 24 22.2501V11.7501C24 10.785 23.215 10 22.2501 10H14.7501C13.7849 10 12.9999 10.785 12.9999 11.7501V22.2501C12.9999 23.2151 13.7849 24.0001 14.7501 24.0001ZM22.2501 11.5C22.3879 11.5 22.5 11.6121 22.5 11.7501V22.2501C22.5 22.388 22.3879 22.5001 22.2501 22.5001H14.7501C14.612 22.5001 14.4999 22.388 14.4999 22.2501V11.7501C14.4999 11.6121 14.612 11.5 14.7501 11.5H22.2501Z" fill="#4980FF"/>
<path d="M1.74988 24.0001H9.24988C10.215 24.0001 11 23.2151 11 22.2501V17.7501C11 16.785 10.215 16 9.24988 16H1.74988C0.784912 16 -6.10352e-05 16.785 -6.10352e-05 17.7501V22.2501C-6.10352e-05 23.2151 0.784912 24.0001 1.74988 24.0001ZM9.24988 17.5C9.38794 17.5 9.5 17.6121 9.5 17.7501V22.2501C9.5 22.388 9.38794 22.5001 9.24988 22.5001H1.74988C1.612 22.5001 1.49994 22.388 1.49994 22.2501V17.7501C1.49994 17.6121 1.612 17.5 1.74988 17.5H9.24988Z" fill="#4980FF"/>
<path d="M1.74988 14.0001H9.24988C10.215 14.0001 11 13.2151 11 12.2499V1.74994C11 0.784973 10.215 0 9.24988 0H1.74988C0.784912 0 -6.10352e-05 0.784973 -6.10352e-05 1.74994V12.2499C-6.10352e-05 13.2151 0.784912 14.0001 1.74988 14.0001ZM9.24988 1.5C9.38794 1.5 9.5 1.61206 9.5 1.74994V12.2499C9.5 12.388 9.38794 12.5001 9.24988 12.5001H1.74988C1.612 12.5001 1.49994 12.388 1.49994 12.2499V1.74994C1.49994 1.61206 1.612 1.5 1.74988 1.5H9.24988Z" fill="#4980FF"/>
</g>
<defs>
<clipPath id="clip0">
<rect width="24" height="24" fill="white" transform="matrix(-1 0 0 1 24 0)"/>
</clipPath>
</defs>
</svg>
