<svg width="15" height="15" viewBox="0 0 15 15" fill="none" xmlns="http://www.w3.org/2000/svg">
<path d="M14.121 0.879083C13.5541 0.312188 12.8004 0 11.9988 0C11.1971 0 10.4435 0.312188 9.87659 0.879053L1.48904 9.26664C1.41767 9.338 1.36596 9.4266 1.33889 9.52383L0.0214672 14.257C-0.0353395 14.4611 0.0224633 14.68 0.172727 14.8295C0.284055 14.9402 0.433235 15 0.585989 15C0.639368 15 0.693216 14.9927 0.746038 14.9777L5.47916 13.6332C5.67884 13.5765 5.83365 13.4183 5.88603 13.2174C5.93841 13.0165 5.88058 12.8029 5.73401 12.6559L2.75006 9.6629L9.70265 2.71028L12.2883 5.29597L6.96586 10.604C6.73672 10.8325 6.73623 11.2035 6.96474 11.4326C7.19323 11.6617 7.56427 11.6622 7.79338 11.4337L14.1209 5.12341C14.6878 4.55655 15 3.80288 15 3.00123C15 2.19958 14.6878 1.44592 14.121 0.879083ZM4.20102 12.7781L1.43047 13.565L2.2064 10.7774L4.20102 12.7781ZM13.2929 4.29419L13.1181 4.46848L10.5313 1.88165L10.7053 1.70769C11.0508 1.36216 11.5102 1.17188 11.9988 1.17188C12.4874 1.17188 12.9468 1.36216 13.2923 1.70772C13.6378 2.05321 13.8281 2.51259 13.8281 3.00123C13.8281 3.48987 13.6378 3.94925 13.2929 4.29419Z" fill="white"/>
</svg>
