<svg width="20" height="20" viewBox="0 0 20 20" fill="none" xmlns="http://www.w3.org/2000/svg">
<g clip-path="url(#clip0)">
<path d="M18.925 1.50595e-06H1.094C0.779508 -0.000593372 0.491192 0.175093 0.34743 0.454883C0.201685 0.73844 0.227265 1.0799 0.413461 1.33887L6.94599 10.5412C6.94817 10.5444 6.95055 10.5473 6.95273 10.5505C7.19008 10.871 7.31838 11.259 7.31917 11.658V19.1605C7.31778 19.3828 7.40503 19.5962 7.56168 19.7538C7.71833 19.9115 7.9313 19.9999 8.15339 19.9999C8.26641 19.9999 8.37805 19.9773 8.48235 19.9341L12.1531 18.5343C12.4821 18.434 12.7004 18.1237 12.7004 17.7499V11.658C12.701 11.2592 12.8295 10.871 13.0667 10.5505C13.0688 10.5473 13.0712 10.5444 13.0734 10.5412L19.6057 1.33847C19.7919 1.0797 19.8175 0.73844 19.6718 0.454883C19.528 0.175093 19.2397 -0.000593372 18.925 1.50595e-06ZM12.2481 9.94909C11.8833 10.4442 11.686 11.0429 11.6848 11.658V17.6266L8.33443 18.904V11.658C8.33324 11.0429 8.13594 10.4442 7.77088 9.94909L1.42891 1.01526H18.5903L12.2481 9.94909Z" fill="white"/>
</g>
<defs>
<clipPath id="clip0">
<rect width="20" height="20" fill="white"/>
</clipPath>
</defs>
</svg>
