<svg width="21" height="20" viewBox="0 0 21 20" fill="none" xmlns="http://www.w3.org/2000/svg">
<path d="M1.11209 9.20224L9.29964 0.658145C9.31013 0.647147 9.32102 0.636475 9.3321 0.626129C10.2261 -0.206068 11.5771 -0.209042 12.4746 0.619246C12.4857 0.629551 12.4966 0.640182 12.5071 0.651098L20.7693 9.19975C21.0765 9.51762 21.077 10.0334 20.7704 10.3519C20.4638 10.6703 19.9663 10.6708 19.6591 10.353L19.0355 9.70776V16.7415C19.0355 18.5383 17.6255 20.0001 15.8924 20.0001H13.0635C12.6295 20.0001 12.2777 19.6354 12.2777 19.1855V12.5461H9.52744V19.1855C9.52744 19.6354 9.17565 20.0001 8.74165 20.0001H5.99138C4.25824 20.0001 2.84822 18.5383 2.84822 16.7415C2.84822 16.2916 3.20001 15.9269 3.63401 15.9269C4.068 15.9269 4.4198 16.2916 4.4198 16.7415C4.4198 17.6399 5.12481 18.3708 5.99138 18.3708H7.95586V11.7315C7.95586 11.2816 8.30766 10.9169 8.74165 10.9169H13.0635C13.4975 10.9169 13.8493 11.2816 13.8493 11.7315V18.3708H15.8924C16.7589 18.3708 17.4639 17.6399 17.4639 16.7415V8.10634C17.4639 8.09819 17.4641 8.09009 17.4643 8.08202L11.4155 1.82349C11.1211 1.56431 10.6893 1.56529 10.396 1.82573L4.4198 8.06223V12.6683C4.4198 13.1183 4.068 13.483 3.63401 13.483C3.20001 13.483 2.84822 13.1183 2.84822 12.6683V9.70222L2.22697 10.3506C2.07338 10.5108 1.87151 10.591 1.66953 10.591C1.46927 10.591 1.26897 10.5121 1.1157 10.3543C0.807827 10.0372 0.806177 9.52141 1.11209 9.20224Z" fill="white"/>
</svg>
