<svg width="24" height="24" viewBox="0 0 24 24" fill="none" xmlns="http://www.w3.org/2000/svg">
<path d="M21.971 1.78973C20.8169 0.635596 19.2824 0 17.6502 0C16.018 0 14.4836 0.635596 13.3295 1.78973C11.5097 3.60939 11.0382 6.36947 12.1005 8.67052L0.23877 20.5321L3.22836 23.5217L4.47259 22.2775L6.19512 24L9.18471 21.0104L7.46228 19.288L8.46217 18.2881L10.784 20.6099L13.7736 17.6202L11.4518 15.2984L15.0901 11.6601C17.3912 12.7225 20.1512 12.2509 21.9709 10.4312C23.125 9.27709 23.7607 7.74261 23.7607 6.11045C23.7607 4.4783 23.1251 2.94382 21.971 1.78973V1.78973ZM20.9761 9.43639C19.4754 10.9371 17.1442 11.2469 15.3068 10.1897L14.8396 9.92098L9.46225 15.2984L11.784 17.6202L10.7841 18.6202L8.46227 16.2984L5.47272 19.2879L7.19515 21.0104L6.19521 22.0103L4.47268 20.2878L3.22846 21.532L2.22852 20.5321L13.8399 8.92104L13.571 8.4539C12.5139 6.61661 12.8237 4.28531 14.3244 2.78456C15.2127 1.89619 16.3939 1.40691 17.6502 1.40691C18.9066 1.40691 20.0878 1.89619 20.9761 2.78456C22.8101 4.61847 22.8101 7.60248 20.9761 9.43639Z" fill="#4980FF"/>
<path d="M17.6501 3.99683C17.0855 3.99683 16.5546 4.21668 16.1553 4.61596C15.756 5.01524 15.5361 5.54612 15.5361 6.11081C15.5361 6.6755 15.756 7.20633 16.1553 7.60561C16.5546 8.00489 17.0855 8.22479 17.6501 8.22479C18.2148 8.22479 18.7457 8.00489 19.1449 7.60561C19.5442 7.20633 19.7641 6.67545 19.7641 6.11076C19.7641 5.54607 19.5442 5.01524 19.1449 4.61596C18.7456 4.21668 18.2148 3.99683 17.6501 3.99683ZM18.1501 6.61078C18.0166 6.7443 17.839 6.81788 17.6502 6.81788C17.4613 6.81788 17.2838 6.74434 17.1502 6.61073C17.0166 6.47717 16.9431 6.29966 16.9431 6.11076C16.9431 5.92186 17.0166 5.74436 17.1502 5.61079C17.2838 5.47723 17.4613 5.40369 17.6502 5.40369C17.839 5.40369 18.0166 5.47723 18.1501 5.61079C18.2837 5.74436 18.3572 5.92186 18.3572 6.11076C18.3572 6.29966 18.2836 6.47717 18.1501 6.61078Z" fill="#4980FF"/>
</svg>
