<svg width="148" height="116" viewBox="0 0 148 116" fill="none" xmlns="http://www.w3.org/2000/svg">
<circle cx="57.7588" cy="57.7588" r="57.7588" fill="#4980FF" fill-opacity="0.25"/>
<path d="M98.7727 57.7951C98.7727 79.9232 80.6334 97.871 58.2459 97.871C35.8584 97.871 17.7192 79.9232 17.7192 57.7951C17.7192 35.667 35.8584 17.7192 58.2459 17.7192C80.6334 17.7192 98.7727 35.667 98.7727 57.7951Z" fill="#4980FF" fill-opacity="0.25" stroke="#4980FF"/>
<path d="M90.6573 57.7949C90.6573 75.4398 76.1527 89.7556 58.2458 89.7556C40.3388 89.7556 25.8342 75.4398 25.8342 57.7949C25.8342 40.15 40.3388 25.8342 58.2458 25.8342C76.1527 25.8342 90.6573 40.15 90.6573 57.7949Z" fill="#4980FF" fill-opacity="0.25" stroke="#4980FF"/>
<circle cx="57.7953" cy="57.7953" r="22.0421" fill="#4980FF" fill-opacity="0.25"/>
<circle cx="57.7953" cy="57.7953" r="22.0421" fill="#4980FF" fill-opacity="0.25"/>
<circle cx="57.7953" cy="57.7953" r="22.0421" fill="#4980FF" fill-opacity="0.25"/>
<circle cx="57.7953" cy="57.7953" r="22.0421" stroke="#4980FF"/>
<ellipse cx="56.8932" cy="57.7953" rx="7.21349" ry="8.11517" fill="#4980FF"/>
<path d="M64.1491 66.1151H53.5804L50.9752 73.7344H44.2407L56.6281 39.0791H61.5929L73.9804 73.7344H66.9018L64.1491 66.1151ZM55.3009 60.7079H62.6744L60.1182 53.0395L59.086 47.6323H58.8402L57.8079 53.0887L55.3009 60.7079Z" fill="white"/>
<path d="M72.9051 49.1562H76.2969V44.5355L82.6872 42.7167V49.1562H88.6843V54.5634H82.6872V64.0014C82.6872 65.7055 82.851 66.9344 83.1788 67.6881C83.5392 68.4091 84.1947 68.7696 85.145 68.7696C85.8004 68.7696 86.3575 68.704 86.8163 68.573C87.3079 68.4419 87.8486 68.2452 88.4385 67.9831L89.5691 72.8987C88.6843 73.3247 87.652 73.6852 86.4722 73.9802C85.2925 74.2751 84.0963 74.4226 82.8838 74.4226C80.6226 74.4226 78.9513 73.8491 77.8699 72.7021C76.8212 71.5223 76.2969 69.6052 76.2969 66.9508V54.5634H72.9051V49.1562Z" fill="white"/>
<path d="M99.1857 65.4761C99.1857 66.6231 99.3332 67.4587 99.6281 67.9831C99.923 68.5074 100.398 68.7696 101.054 68.7696C101.447 68.7696 101.824 68.7368 102.184 68.6713C102.577 68.6057 103.053 68.4583 103.61 68.2289L104.298 73.2428C103.774 73.505 102.971 73.7672 101.889 74.0293C100.808 74.2915 99.6936 74.4226 98.5467 74.4226C96.6787 74.4226 95.2532 73.9965 94.2701 73.1445C93.2869 72.2597 92.7954 70.8178 92.7954 68.8187V39.3249H99.1857V65.4761Z" fill="white"/>
<path d="M106.901 50.5817C108.211 49.9918 109.768 49.533 111.57 49.2053C113.373 48.8448 115.257 48.6646 117.223 48.6646C118.928 48.6646 120.353 48.8776 121.5 49.3036C122.647 49.6969 123.548 50.2704 124.204 51.0241C124.892 51.7778 125.367 52.679 125.629 53.7277C125.924 54.7764 126.072 55.9561 126.072 57.267C126.072 58.7089 126.022 60.1672 125.924 61.6419C125.826 63.0838 125.76 64.5094 125.727 65.9185C125.727 67.3277 125.777 68.704 125.875 70.0476C125.973 71.3585 126.219 72.6038 126.612 73.7835H121.402L120.369 70.3917H120.124C119.468 71.4076 118.551 72.2925 117.371 73.0462C116.224 73.7671 114.733 74.1276 112.898 74.1276C111.751 74.1276 110.718 73.9638 109.801 73.6361C108.883 73.2756 108.097 72.784 107.441 72.1614C106.786 71.506 106.278 70.7522 105.917 69.9002C105.557 69.0154 105.377 68.0322 105.377 66.9508C105.377 65.4433 105.704 64.1816 106.36 63.1657C107.048 62.1171 108.015 61.2814 109.26 60.6588C110.538 60.0034 112.046 59.5609 113.782 59.3315C115.552 59.0694 117.518 58.9875 119.681 59.0858C119.911 57.2506 119.78 55.9398 119.288 55.1533C118.796 54.334 117.699 53.9243 115.995 53.9243C114.716 53.9243 113.356 54.0554 111.915 54.3176C110.505 54.5798 109.342 54.9239 108.424 55.3499L106.901 50.5817ZM115.011 68.8679C116.289 68.8679 117.305 68.5893 118.059 68.0322C118.813 67.4424 119.37 66.8197 119.73 66.1643V62.9691C118.715 62.8708 117.731 62.8544 116.781 62.92C115.863 62.9855 115.044 63.133 114.323 63.3624C113.602 63.5918 113.029 63.9195 112.603 64.3455C112.177 64.7715 111.964 65.3122 111.964 65.9677C111.964 66.8853 112.226 67.6062 112.75 68.1305C113.307 68.6221 114.061 68.8679 115.011 68.8679Z" fill="white"/>
<path d="M141.61 66.9508C141.61 66.2954 141.331 65.771 140.774 65.3778C140.217 64.9845 139.529 64.6241 138.709 64.2963C137.89 63.9686 136.989 63.6409 136.006 63.3132C135.023 62.9527 134.121 62.4776 133.302 61.8877C132.483 61.265 131.795 60.4949 131.238 59.5773C130.681 58.627 130.402 57.4144 130.402 55.9398C130.402 53.5147 131.123 51.6631 132.565 50.3851C134.007 49.107 136.088 48.468 138.808 48.468C140.676 48.468 142.363 48.6646 143.871 49.0579C145.378 49.4511 146.558 49.8935 147.41 50.3851L145.985 55.0058C145.231 54.7108 144.28 54.3995 143.133 54.0718C141.986 53.7441 140.823 53.5802 139.643 53.5802C137.743 53.5802 136.792 54.3176 136.792 55.7923C136.792 56.3822 137.071 56.8573 137.628 57.2178C138.185 57.5783 138.873 57.9224 139.693 58.2501C140.512 58.545 141.413 58.8728 142.396 59.2332C143.379 59.5937 144.28 60.0689 145.1 60.6588C145.919 61.2159 146.607 61.9532 147.164 62.8708C147.721 63.7884 148 64.9682 148 66.4101C148 68.9007 147.197 70.8669 145.591 72.3088C144.018 73.718 141.642 74.4226 138.464 74.4226C136.727 74.4226 135.088 74.1932 133.548 73.7344C132.04 73.3084 130.812 72.8004 129.861 72.2105L131.631 67.4424C132.385 67.8684 133.384 68.2944 134.629 68.7204C135.875 69.1137 137.153 69.3103 138.464 69.3103C139.414 69.3103 140.168 69.1301 140.725 68.7696C141.315 68.4091 141.61 67.8028 141.61 66.9508Z" fill="white"/>
</svg>
