<svg width="216" height="169" viewBox="0 0 216 169" fill="none" xmlns="http://www.w3.org/2000/svg">
<circle cx="84.2966" cy="84.2966" r="84.2966" fill="#4980FF" fill-opacity="0.25"/>
<path d="M144.384 84.3497C144.384 116.774 117.806 143.069 85.0077 143.069C52.2095 143.069 25.6309 116.774 25.6309 84.3497C25.6309 51.9254 52.2095 25.6309 85.0077 25.6309C117.806 25.6309 144.384 51.9254 144.384 84.3497Z" fill="#4980FF" fill-opacity="0.25" stroke="#4980FF"/>
<path d="M132.54 84.3497C132.54 110.232 111.265 131.225 85.0072 131.225C58.7489 131.225 37.4741 110.232 37.4741 84.3497C37.4741 58.4678 58.7489 37.4746 85.0072 37.4746C111.265 37.4746 132.54 58.4678 132.54 84.3497Z" fill="#4980FF" fill-opacity="0.25" stroke="#4980FF"/>
<circle cx="84.35" cy="84.3486" r="32.3993" fill="#4980FF" fill-opacity="0.25"/>
<circle cx="84.35" cy="84.3486" r="32.3993" fill="#4980FF" fill-opacity="0.25"/>
<circle cx="84.35" cy="84.3486" r="32.3993" fill="#4980FF" fill-opacity="0.25"/>
<circle cx="84.35" cy="84.3486" r="32.3993" stroke="#4980FF"/>
<ellipse cx="83.0332" cy="84.3496" rx="10.5278" ry="11.8438" fill="#4980FF"/>
<path d="M93.6228 96.4941H78.1983L74.396 107.614H64.5674L82.6463 57.0361H89.8922L107.971 107.614H97.6404L93.6228 96.4941ZM80.7093 88.6025H91.4706L87.74 77.4108L86.2334 69.5192H85.8747L84.3681 77.4825L80.7093 88.6025Z" fill="white"/>
<path d="M106.402 71.7432H111.352V64.9995L120.678 62.345V71.7432H129.431V79.6348H120.678V93.4092C120.678 95.8963 120.918 97.6898 121.396 98.7899C121.922 99.8421 122.879 100.368 124.266 100.368C125.222 100.368 126.035 100.273 126.705 100.081C127.422 99.8899 128.211 99.6029 129.072 99.2203L130.722 106.394C129.431 107.016 127.924 107.542 126.203 107.973C124.481 108.403 122.735 108.618 120.965 108.618C117.665 108.618 115.226 107.782 113.648 106.108C112.117 104.386 111.352 101.588 111.352 97.7137V79.6348H106.402V71.7432Z" fill="white"/>
<path d="M144.757 95.5615C144.757 97.2355 144.973 98.4551 145.403 99.2203C145.833 99.9856 146.527 100.368 147.484 100.368C148.057 100.368 148.607 100.32 149.134 100.225C149.708 100.129 150.401 99.9138 151.214 99.579L152.218 106.897C151.453 107.279 150.281 107.662 148.703 108.045C147.125 108.427 145.499 108.618 143.825 108.618C141.099 108.618 139.018 107.997 137.583 106.753C136.148 105.462 135.431 103.357 135.431 100.44V57.3948H144.757V95.5615Z" fill="white"/>
<path d="M156.017 73.8237C157.93 72.9628 160.202 72.2932 162.832 71.8149C165.463 71.2888 168.213 71.0258 171.083 71.0258C173.57 71.0258 175.65 71.3367 177.324 71.9584C178.998 72.5324 180.313 73.3694 181.27 74.4694C182.274 75.5694 182.968 76.8847 183.351 78.4152C183.781 79.9457 183.996 81.6675 183.996 83.5806C183.996 85.685 183.924 87.8134 183.781 89.9656C183.637 92.07 183.542 94.1506 183.494 96.2072C183.494 98.2638 183.566 100.273 183.709 102.233C183.853 104.147 184.211 105.964 184.785 107.686H177.181L175.674 102.736H175.315C174.359 104.218 173.02 105.51 171.298 106.61C169.624 107.662 167.448 108.188 164.769 108.188C163.095 108.188 161.589 107.949 160.25 107.471C158.91 106.945 157.763 106.227 156.806 105.318C155.849 104.362 155.108 103.262 154.582 102.018C154.056 100.727 153.793 99.2921 153.793 97.7137C153.793 95.5137 154.271 93.6723 155.228 92.1896C156.232 90.6591 157.643 89.4395 159.46 88.5308C161.326 87.5742 163.526 86.9286 166.061 86.5938C168.643 86.2111 171.513 86.0916 174.67 86.235C175.005 83.5567 174.813 81.6436 174.096 80.4957C173.378 79.3 171.776 78.7022 169.289 78.7022C167.424 78.7022 165.439 78.8935 163.335 79.2761C161.278 79.6587 159.58 80.1609 158.241 80.7827L156.017 73.8237ZM167.854 100.512C169.72 100.512 171.202 100.105 172.302 99.2921C173.402 98.4312 174.215 97.5224 174.741 96.5659V91.9026C173.259 91.7592 171.824 91.7353 170.437 91.8309C169.098 91.9266 167.902 92.1418 166.85 92.4766C165.798 92.8114 164.961 93.2897 164.339 93.9114C163.717 94.5332 163.406 95.3223 163.406 96.2789C163.406 97.6181 163.789 98.6703 164.554 99.4355C165.367 100.153 166.467 100.512 167.854 100.512Z" fill="white"/>
<path d="M206.673 97.7137C206.673 96.7572 206.267 95.9919 205.454 95.418C204.641 94.8441 203.636 94.318 202.441 93.8397C201.245 93.3614 199.93 92.8831 198.495 92.4048C197.06 91.8787 195.745 91.1852 194.549 90.3243C193.353 89.4156 192.349 88.2916 191.536 86.9525C190.723 85.5655 190.316 83.7958 190.316 81.6436C190.316 78.1043 191.368 75.402 193.473 73.5367C195.577 71.6715 198.614 70.7388 202.584 70.7388C205.31 70.7388 207.773 71.0258 209.973 71.5997C212.174 72.1737 213.895 72.8193 215.139 73.5367L213.058 80.2805C211.958 79.85 210.571 79.3957 208.897 78.9174C207.223 78.4391 205.525 78.2 203.804 78.2C201.03 78.2 199.643 79.2761 199.643 81.4283C199.643 82.2892 200.049 82.9828 200.862 83.5089C201.675 84.035 202.68 84.5372 203.875 85.0154C205.071 85.4459 206.386 85.9242 207.821 86.4503C209.256 86.9764 210.571 87.6699 211.767 88.5308C212.963 89.3439 213.967 90.42 214.78 91.7592C215.593 93.0983 216 94.8202 216 96.9246C216 100.559 214.828 103.429 212.484 105.534C210.189 107.59 206.721 108.618 202.082 108.618C199.547 108.618 197.156 108.284 194.908 107.614C192.708 106.992 190.914 106.251 189.527 105.39L192.11 98.4312C193.21 99.0529 194.669 99.6747 196.486 100.296C198.303 100.87 200.169 101.157 202.082 101.157C203.469 101.157 204.569 100.894 205.382 100.368C206.243 99.8421 206.673 98.9573 206.673 97.7137Z" fill="white"/>
</svg>
