<svg width="61" height="47" viewBox="0 0 61 47" fill="none" xmlns="http://www.w3.org/2000/svg">
<circle cx="23.5" cy="23.5" r="23.5" fill="#4980FF" fill-opacity="0.25"/>
<path d="M39.8905 23.5147C39.8905 32.351 32.6462 39.5236 23.6982 39.5236C14.7502 39.5236 7.50586 32.351 7.50586 23.5147C7.50586 14.6785 14.7502 7.50586 23.6982 7.50586C32.6462 7.50586 39.8905 14.6785 39.8905 23.5147Z" fill="#4980FF" fill-opacity="0.25" stroke="#4980FF"/>
<path d="M36.5897 23.5147C36.5897 30.5262 30.8249 36.2218 23.6991 36.2218C16.5734 36.2218 10.8086 30.5262 10.8086 23.5147C10.8086 16.5033 16.5734 10.8076 23.6991 10.8076C30.8249 10.8076 36.5897 16.5033 36.5897 23.5147Z" fill="#4980FF" fill-opacity="0.25" stroke="#4980FF"/>
<circle cx="23.5153" cy="23.5144" r="8.6716" fill="#4980FF" fill-opacity="0.25"/>
<circle cx="23.5153" cy="23.5144" r="8.6716" fill="#4980FF" fill-opacity="0.25"/>
<circle cx="23.5153" cy="23.5144" r="8.6716" fill="#4980FF" fill-opacity="0.25"/>
<circle cx="23.5153" cy="23.5144" r="8.6716" stroke="#4980FF"/>
<ellipse cx="23.1478" cy="23.5147" rx="2.93491" ry="3.30178" fill="#4980FF"/>
<path d="M26.1 26.9H21.8L20.74 30H18L23.04 15.9H25.06L30.1 30H27.22L26.1 26.9ZM22.5 24.7H25.5L24.46 21.58L24.04 19.38H23.94L23.52 21.6L22.5 24.7ZM29.6625 20H31.0425V18.12L33.6425 17.38V20H36.0825V22.2H33.6425V26.04C33.6425 26.7333 33.7092 27.2333 33.8425 27.54C33.9892 27.8333 34.2558 27.98 34.6425 27.98C34.9092 27.98 35.1358 27.9533 35.3225 27.9C35.5225 27.8467 35.7425 27.7667 35.9825 27.66L36.4425 29.66C36.0825 29.8333 35.6625 29.98 35.1825 30.1C34.7025 30.22 34.2158 30.28 33.7225 30.28C32.8025 30.28 32.1225 30.0467 31.6825 29.58C31.2558 29.1 31.0425 28.32 31.0425 27.24V22.2H29.6625V20ZM40.3552 26.64C40.3552 27.1067 40.4152 27.4467 40.5352 27.66C40.6552 27.8733 40.8485 27.98 41.1152 27.98C41.2752 27.98 41.4285 27.9667 41.5752 27.94C41.7352 27.9133 41.9285 27.8533 42.1552 27.76L42.4352 29.8C42.2218 29.9067 41.8952 30.0133 41.4552 30.12C41.0152 30.2267 40.5618 30.28 40.0952 30.28C39.3352 30.28 38.7552 30.1067 38.3552 29.76C37.9552 29.4 37.7552 28.8133 37.7552 28V16H40.3552V26.64ZM43.4941 20.58C44.0274 20.34 44.6607 20.1533 45.3941 20.02C46.1274 19.8733 46.8941 19.8 47.6941 19.8C48.3874 19.8 48.9674 19.8867 49.4341 20.06C49.9007 20.22 50.2674 20.4533 50.5341 20.76C50.8141 21.0667 51.0074 21.4333 51.1141 21.86C51.2341 22.2867 51.2941 22.7667 51.2941 23.3C51.2941 23.8867 51.2741 24.48 51.2341 25.08C51.1941 25.6667 51.1674 26.2467 51.1541 26.82C51.1541 27.3933 51.1741 27.9533 51.2141 28.5C51.2541 29.0333 51.3541 29.54 51.5141 30.02H49.3941L48.9741 28.64H48.8741C48.6074 29.0533 48.2341 29.4133 47.7541 29.72C47.2874 30.0133 46.6807 30.16 45.9341 30.16C45.4674 30.16 45.0474 30.0933 44.6741 29.96C44.3007 29.8133 43.9807 29.6133 43.7141 29.36C43.4474 29.0933 43.2407 28.7867 43.0941 28.44C42.9474 28.08 42.8741 27.68 42.8741 27.24C42.8741 26.6267 43.0074 26.1133 43.2741 25.7C43.5541 25.2733 43.9474 24.9333 44.4541 24.68C44.9741 24.4133 45.5874 24.2333 46.2941 24.14C47.0141 24.0333 47.8141 24 48.6941 24.04C48.7874 23.2933 48.7341 22.76 48.5341 22.44C48.3341 22.1067 47.8874 21.94 47.1941 21.94C46.6741 21.94 46.1207 21.9933 45.5341 22.1C44.9607 22.2067 44.4874 22.3467 44.1141 22.52L43.4941 20.58ZM46.7941 28.02C47.3141 28.02 47.7274 27.9067 48.0341 27.68C48.3407 27.44 48.5674 27.1867 48.7141 26.92V25.62C48.3007 25.58 47.9007 25.5733 47.5141 25.6C47.1407 25.6267 46.8074 25.6867 46.5141 25.78C46.2207 25.8733 45.9874 26.0067 45.8141 26.18C45.6407 26.3533 45.5541 26.5733 45.5541 26.84C45.5541 27.2133 45.6607 27.5067 45.8741 27.72C46.1007 27.92 46.4074 28.02 46.7941 28.02ZM57.6159 27.24C57.6159 26.9733 57.5026 26.76 57.2759 26.6C57.0493 26.44 56.7693 26.2933 56.4359 26.16C56.1026 26.0267 55.7359 25.8933 55.3359 25.76C54.9359 25.6133 54.5693 25.42 54.2359 25.18C53.9026 24.9267 53.6226 24.6133 53.3959 24.24C53.1693 23.8533 53.0559 23.36 53.0559 22.76C53.0559 21.7733 53.3493 21.02 53.9359 20.5C54.5226 19.98 55.3693 19.72 56.4759 19.72C57.2359 19.72 57.9226 19.8 58.5359 19.96C59.1493 20.12 59.6293 20.3 59.9759 20.5L59.3959 22.38C59.0893 22.26 58.7026 22.1333 58.2359 22C57.7693 21.8667 57.2959 21.8 56.8159 21.8C56.0426 21.8 55.6559 22.1 55.6559 22.7C55.6559 22.94 55.7693 23.1333 55.9959 23.28C56.2226 23.4267 56.5026 23.5667 56.8359 23.7C57.1693 23.82 57.5359 23.9533 57.9359 24.1C58.3359 24.2467 58.7026 24.44 59.0359 24.68C59.3693 24.9067 59.6493 25.2067 59.8759 25.58C60.1026 25.9533 60.2159 26.4333 60.2159 27.02C60.2159 28.0333 59.8893 28.8333 59.2359 29.42C58.5959 29.9933 57.6293 30.28 56.3359 30.28C55.6293 30.28 54.9626 30.1867 54.3359 30C53.7226 29.8267 53.2226 29.62 52.8359 29.38L53.5559 27.44C53.8626 27.6133 54.2693 27.7867 54.7759 27.96C55.2826 28.12 55.8026 28.2 56.3359 28.2C56.7226 28.2 57.0293 28.1267 57.2559 27.98C57.4959 27.8333 57.6159 27.5867 57.6159 27.24Z" fill="white"/>
</svg>
