<svg width="16" height="13" viewBox="0 0 16 13" fill="none" xmlns="http://www.w3.org/2000/svg">
<path d="M15.375 7.68031C15.7202 7.68031 16 7.3826 16 7.01535V2.65985C16 1.19321 14.8785 0 13.5 0H2.5C1.1215 0 0 1.19321 0 2.65985V10.3402C0 11.8068 1.1215 13 2.5 13H13.5C14.8785 13 16 11.8068 16 10.3402C16 9.97289 15.7202 9.67519 15.375 9.67519C15.0298 9.67519 14.75 9.97289 14.75 10.3402C14.75 11.0735 14.1892 11.6701 13.5 11.6701H2.5C1.81075 11.6701 1.25 11.0735 1.25 10.3402V2.80075L6.67984 6.39304C7.087 6.66238 7.5435 6.79707 8 6.79707C8.4565 6.79707 8.913 6.66238 9.32016 6.39304L14.75 2.80075V7.01535C14.75 7.3826 15.0298 7.68031 15.375 7.68031ZM8.66006 5.26364C8.25294 5.53298 7.74706 5.53301 7.33994 5.26364L1.77153 1.57968C1.97678 1.42255 2.22841 1.32992 2.5 1.32992H13.5C13.7716 1.32992 14.0232 1.42259 14.2285 1.57972L8.66006 5.26364Z" fill="white"/>
</svg>
