<svg width="24" height="22" viewBox="0 0 24 22" fill="none" xmlns="http://www.w3.org/2000/svg">
<path d="M22.5938 0H1.40625C0.630844 0 0 0.630844 0 1.40625V15.375C0 16.1504 0.630844 16.7812 1.40625 16.7812H8.29688V20.25H4.5C4.11169 20.25 3.79688 20.5648 3.79688 20.9531C3.79688 21.3414 4.11169 21.6562 4.5 21.6562H19.5C19.8883 21.6562 20.2031 21.3414 20.2031 20.9531C20.2031 20.5648 19.8883 20.25 19.5 20.25H15.7031V16.7812H22.5938C23.3692 16.7812 24 16.1504 24 15.375V1.40625C24 0.630844 23.3692 0 22.5938 0ZM14.2969 20.25H9.70312V16.7812H14.2969V20.25ZM22.5938 15.375C21.977 15.375 1.9005 15.375 1.40625 15.375V1.40625H22.5938C22.5946 15.6784 22.5984 15.375 22.5938 15.375Z" fill="white"/>
</svg>
