<svg width="20" height="17" viewBox="0 0 20 17" fill="none" xmlns="http://www.w3.org/2000/svg">
<path d="M19.2188 9.60038C19.6502 9.60038 20 9.22825 20 8.76918V3.32481C20 1.49151 18.5981 0 16.875 0H3.125C1.40188 0 0 1.49151 0 3.32481V12.9252C0 14.7585 1.40188 16.25 3.125 16.25H16.875C18.5981 16.25 20 14.7585 20 12.9252C20 12.4661 19.6502 12.094 19.2188 12.094C18.7873 12.094 18.4375 12.4661 18.4375 12.9252C18.4375 13.8418 17.7366 14.5876 16.875 14.5876H3.125C2.26344 14.5876 1.5625 13.8418 1.5625 12.9252V3.50094L8.3498 7.9913C8.85875 8.32798 9.42938 8.49634 10 8.49634C10.5706 8.49634 11.1412 8.32798 11.6502 7.9913L18.4375 3.50094V8.76918C18.4375 9.22825 18.7873 9.60038 19.2188 9.60038ZM10.8251 6.57955C10.3162 6.91622 9.68383 6.91627 9.17492 6.57955L2.21441 1.9746C2.47098 1.77819 2.78551 1.6624 3.125 1.6624H16.875C17.2145 1.6624 17.529 1.77823 17.7856 1.97465L10.8251 6.57955Z" fill="#4980FF"/>
</svg>
