<svg width="16" height="20" viewBox="0 0 16 20" fill="none" xmlns="http://www.w3.org/2000/svg">
<path d="M15.2453 10.6265C15.6621 10.6265 16 10.2767 16 9.84516V3.12547C16 1.40207 14.6457 0 12.9811 0H6.03774C4.37407 0 3.02042 1.40051 3.01887 3.12258C1.35429 3.12258 0 4.52465 0 6.24805V16.8746C0 18.5979 1.35425 20 3.01887 20H10.3396C12.0042 20 13.3585 18.598 13.3585 16.8746V16.8508C14.8456 16.6579 16 15.3406 16 13.7497C16 13.3181 15.6621 12.9683 15.2452 12.9683C14.8284 12.9683 14.4905 13.3181 14.4905 13.7497C14.4905 14.6112 13.8136 15.3122 12.9815 15.3124L6.03808 15.3142H6.03774C5.6346 15.3142 5.2556 15.1517 4.97054 14.8566C4.68538 14.5614 4.52831 14.1689 4.52831 13.7514V3.12547C4.52831 2.26379 5.20545 1.56273 6.03774 1.56273H12.9812C13.8135 1.56273 14.4906 2.26379 14.4906 3.12547V9.8452C14.4906 10.2767 14.8284 10.6265 15.2453 10.6265ZM6.03774 16.8768H6.0385L11.849 16.8754C11.8486 17.7366 11.1716 18.4372 10.3396 18.4372H3.01891C2.18662 18.4372 1.50947 17.7362 1.50947 16.8745V6.24797C1.50947 5.38629 2.18662 4.68523 3.01891 4.68523V13.7514C3.01891 14.5864 3.33301 15.3714 3.90334 15.9617C4.47356 16.5519 5.23145 16.8768 6.03774 16.8768Z" fill="#4980FF"/>
<path d="M12.109 4H6.75472C6.33787 4 6 4.3498 6 4.78136C6 5.21292 6.33787 5.56273 6.75472 5.56273H12.109C12.5259 5.56273 12.8637 5.21292 12.8637 4.78136C12.8637 4.3498 12.5258 4 12.109 4Z" fill="#4980FF"/>
<path d="M12.109 7.12598H6.75472C6.33787 7.12598 6 7.47578 6 7.90734C6 8.33891 6.33787 8.68871 6.75472 8.68871H12.109C12.5258 8.68871 12.8637 8.33891 12.8637 7.90734C12.8637 7.47578 12.5259 7.12598 12.109 7.12598Z" fill="#4980FF"/>
<path d="M9.0566 10.252H6.75472C6.33787 10.252 6 10.6018 6 11.0333C6 11.4649 6.33787 11.8147 6.75472 11.8147H9.0566C9.47345 11.8147 9.81132 11.4649 9.81132 11.0333C9.81132 10.6018 9.47345 10.252 9.0566 10.252Z" fill="#4980FF"/>
</svg>
