<svg width="10" height="10" viewBox="0 0 10 10" fill="none" xmlns="http://www.w3.org/2000/svg">
<path d="M8.7154 1.25H6.76156V0.9375C6.76156 0.419727 6.28443 0 5.69583 0H4.27486C3.68627 0 3.20913 0.419727 3.20913 0.9375V1.25H1.2553C0.764816 1.25 0.367188 1.59979 0.367188 2.03125V2.65625C0.367188 2.82885 0.526225 2.96875 0.722431 2.96875H9.24826C9.44447 2.96875 9.60351 2.82885 9.60351 2.65625V2.03125C9.60351 1.59979 9.20588 1.25 8.7154 1.25ZM3.91962 0.9375C3.91962 0.765234 4.07903 0.625 4.27486 0.625H5.69583C5.89166 0.625 6.05108 0.765234 6.05108 0.9375V1.25H3.91962V0.9375Z" fill="#4980FF"/>
<path d="M1.04265 3.59375C0.979261 3.59375 0.92875 3.64035 0.931769 3.69605L1.22484 9.10703C1.25193 9.60781 1.71952 10 2.28924 10H7.68405C8.25377 10 8.72136 9.60781 8.74845 9.10703L9.04152 3.69605C9.04455 3.64035 8.99403 3.59375 8.93064 3.59375H1.04265ZM6.40762 4.375C6.40762 4.20234 6.56659 4.0625 6.76286 4.0625C6.95913 4.0625 7.11811 4.20234 7.11811 4.375V8.4375C7.11811 8.61016 6.95913 8.75 6.76286 8.75C6.56659 8.75 6.40762 8.61016 6.40762 8.4375V4.375ZM4.6314 4.375C4.6314 4.20234 4.79038 4.0625 4.98665 4.0625C5.18292 4.0625 5.34189 4.20234 5.34189 4.375V8.4375C5.34189 8.61016 5.18292 8.75 4.98665 8.75C4.79038 8.75 4.6314 8.61016 4.6314 8.4375V4.375ZM2.85519 4.375C2.85519 4.20234 3.01416 4.0625 3.21043 4.0625C3.4067 4.0625 3.56567 4.20234 3.56567 4.375V8.4375C3.56567 8.61016 3.4067 8.75 3.21043 8.75C3.01416 8.75 2.85519 8.61016 2.85519 8.4375V4.375Z" fill="#4980FF"/>
</svg>
