<svg width="21" height="21" viewBox="0 0 21 21" fill="none" xmlns="http://www.w3.org/2000/svg">
<path d="M20.9468 17.9945C20.8544 17.551 20.4201 17.2663 19.9765 17.3586C19.5329 17.4509 19.2482 17.8854 19.3406 18.3289C19.3938 18.5843 19.3304 18.8462 19.1669 19.0474C19.0721 19.1639 18.8608 19.3594 18.5106 19.3594H2.48935C2.13916 19.3594 1.92789 19.1639 1.83314 19.0474C1.66953 18.8462 1.6062 18.5843 1.6594 18.3289C2.51072 14.2398 6.11743 11.2528 10.2825 11.1521C10.3547 11.1549 10.4272 11.1562 10.5 11.1562C10.5731 11.1562 10.6458 11.1548 10.7183 11.152C13.6522 11.2224 16.364 12.7084 18.0062 15.1576C18.2585 15.5339 18.7681 15.6344 19.1444 15.3821C19.5207 15.1298 19.6212 14.6203 19.3689 14.244C18.0229 12.2365 16.0684 10.7768 13.8398 10.0433C15.1979 9.02491 16.0781 7.40238 16.0781 5.57812C16.0781 2.50236 13.5758 0 10.5 0C7.42419 0 4.92187 2.50236 4.92187 5.57812C4.92187 7.40348 5.80321 9.02688 7.16267 10.0452C5.91711 10.4553 4.74837 11.0933 3.72544 11.9347C1.84971 13.4776 0.545534 15.6297 0.0532226 17.9945C-0.101078 18.7355 0.0837792 19.4966 0.560299 20.0825C1.03448 20.6656 1.73761 21 2.48935 21H18.5106C19.2624 21 19.9655 20.6656 20.4397 20.0825C20.9163 19.4966 21.1011 18.7355 20.9468 17.9945ZM6.56249 5.57812C6.56249 3.40696 8.32883 1.64062 10.5 1.64062C12.6712 1.64062 14.4375 3.40696 14.4375 5.57812C14.4375 7.68243 12.7782 9.40648 10.6993 9.51062C10.633 9.50939 10.5665 9.50878 10.5 9.50878C10.4338 9.50878 10.3676 9.50943 10.3015 9.51066C8.22219 9.40693 6.56249 7.68272 6.56249 5.57812Z" fill="white"/>
</svg>
